<svg width="291" height="54" viewBox="0 0 291 54" fill="none" xmlns="http://www.w3.org/2000/svg">
<rect x="0.82666" y="22.3103" width="39.9777" height="37.6456" rx="16" transform="rotate(-33.9223 0.82666 22.3103)" fill="#4A88EB"/>
<mask id="mask0_347_8" style="mask-type:luminance" maskUnits="userSpaceOnUse" x="7" y="6" width="42" height="42">
<rect x="0.82666" y="22.3103" width="39.9777" height="37.6456" rx="16" transform="rotate(-33.9223 0.82666 22.3103)" fill="white"/>
</mask>
<g mask="url(#mask0_347_8)">
<path fill-rule="evenodd" clip-rule="evenodd" d="M18.8353 2.45915L27.4825 62.6181L49.8545 58.8349L70.9258 20.8479L18.8353 2.45915Z" fill="#3A6CBD"/>
<path fill-rule="evenodd" clip-rule="evenodd" d="M-0.861476 15.7059L7.78569 75.8648L30.1577 72.0816L51.229 34.0946L-0.861476 15.7059Z" fill="url(#paint0_linear_347_8)"/>
<path d="M37.6647 10.3879L18.2837 16.0175C15.885 16.7143 13.7517 18.048 12.3531 19.7253C10.9545 21.4026 10.4052 23.2861 10.826 24.9614C11.2468 26.6366 12.6033 27.9665 14.597 28.6584C16.5907 29.3503 19.0584 29.3476 21.4571 28.6508L34.3778 24.8977C36.7765 24.201 39.2442 24.1982 41.2379 24.8902C43.2316 25.5821 44.5881 26.9119 45.0089 28.5872C45.4297 30.2625 44.8804 32.146 43.4818 33.8233C42.0832 35.5006 39.9499 36.8343 37.5512 37.5311L26.5686 40.7212L15.27 43.7866" stroke="#9DBFF4" stroke-width="5" stroke-linecap="round" stroke-linejoin="round"/>
</g>
<path d="M22.0513 8.1167L31.977 47.384" stroke="#3F7DE0" stroke-width="5" stroke-linecap="round" stroke-linejoin="round"/>
<path d="M67.1598 41.2801C65.2931 41.2801 63.6131 40.9601 62.1198 40.3201C60.6264 39.6535 59.4531 38.7201 58.5998 37.5201C57.7464 36.3201 57.3198 34.9201 57.3198 33.3201H62.1998C62.3064 34.5201 62.7731 35.5068 63.5998 36.2801C64.4531 37.0535 65.6398 37.4401 67.1598 37.4401C68.7331 37.4401 69.9598 37.0668 70.8398 36.3201C71.7198 35.5468 72.1598 34.5601 72.1598 33.3601C72.1598 32.4268 71.8798 31.6668 71.3198 31.0801C70.7864 30.4935 70.1064 30.0401 69.2798 29.7201C68.4798 29.4001 67.3598 29.0535 65.9198 28.6801C64.1064 28.2001 62.6264 27.7201 61.4798 27.2401C60.3598 26.7335 59.3998 25.9601 58.5998 24.9201C57.7998 23.8801 57.3998 22.4935 57.3998 20.7601C57.3998 19.1601 57.7998 17.7601 58.5998 16.5601C59.3998 15.3601 60.5198 14.4401 61.9598 13.8001C63.3998 13.1601 65.0664 12.8401 66.9598 12.8401C69.6531 12.8401 71.8531 13.5201 73.5598 14.8801C75.2931 16.2135 76.2531 18.0535 76.4398 20.4001H71.3998C71.3198 19.3868 70.8398 18.5201 69.9598 17.8001C69.0798 17.0801 67.9198 16.7201 66.4798 16.7201C65.1731 16.7201 64.1064 17.0535 63.2798 17.7201C62.4531 18.3868 62.0398 19.3468 62.0398 20.6001C62.0398 21.4535 62.2931 22.1601 62.7998 22.7201C63.3331 23.2535 63.9998 23.6801 64.7998 24.0001C65.5998 24.3201 66.6931 24.6668 68.0798 25.0401C69.9198 25.5468 71.4131 26.0535 72.5598 26.5601C73.7331 27.0668 74.7198 27.8535 75.5198 28.9201C76.3464 29.9601 76.7598 31.3601 76.7598 33.1201C76.7598 34.5335 76.3731 35.8668 75.5998 37.1201C74.8531 38.3735 73.7464 39.3868 72.2798 40.1601C70.8398 40.9068 69.1331 41.2801 67.1598 41.2801ZM86.7004 22.2001C87.4737 21.1868 88.527 20.3335 89.8604 19.6401C91.1937 18.9468 92.7004 18.6001 94.3804 18.6001C96.3004 18.6001 98.047 19.0801 99.6204 20.0401C101.22 20.9735 102.474 22.2935 103.38 24.0001C104.287 25.7068 104.74 27.6668 104.74 29.8801C104.74 32.0935 104.287 34.0801 103.38 35.8401C102.474 37.5735 101.22 38.9335 99.6204 39.9201C98.047 40.8801 96.3004 41.3601 94.3804 41.3601C92.7004 41.3601 91.207 41.0268 89.9004 40.3601C88.5937 39.6668 87.527 38.8135 86.7004 37.8001V51.4801H82.1404V18.9601H86.7004V22.2001ZM100.1 29.8801C100.1 28.3601 99.7804 27.0535 99.1404 25.9601C98.527 24.8401 97.7004 24.0001 96.6604 23.4401C95.647 22.8535 94.5537 22.5601 93.3804 22.5601C92.2337 22.5601 91.1404 22.8535 90.1004 23.4401C89.087 24.0268 88.2604 24.8801 87.6204 26.0001C87.007 27.1201 86.7004 28.4401 86.7004 29.9601C86.7004 31.4801 87.007 32.8135 87.6204 33.9601C88.2604 35.0801 89.087 35.9335 90.1004 36.5201C91.1404 37.1068 92.2337 37.4001 93.3804 37.4001C94.5537 37.4001 95.647 37.1068 96.6604 36.5201C97.7004 35.9068 98.527 35.0268 99.1404 33.8801C99.7804 32.7335 100.1 31.4001 100.1 29.8801ZM113.81 22.2001C114.583 21.1868 115.636 20.3335 116.97 19.6401C118.303 18.9468 119.81 18.6001 121.49 18.6001C123.41 18.6001 125.156 19.0801 126.73 20.0401C128.33 20.9735 129.583 22.2935 130.49 24.0001C131.396 25.7068 131.85 27.6668 131.85 29.8801C131.85 32.0935 131.396 34.0801 130.49 35.8401C129.583 37.5735 128.33 38.9335 126.73 39.9201C125.156 40.8801 123.41 41.3601 121.49 41.3601C119.81 41.3601 118.316 41.0268 117.01 40.3601C115.703 39.6668 114.636 38.8135 113.81 37.8001V51.4801H109.25V18.9601H113.81V22.2001ZM127.21 29.8801C127.21 28.3601 126.89 27.0535 126.25 25.9601C125.636 24.8401 124.81 24.0001 123.77 23.4401C122.756 22.8535 121.663 22.5601 120.49 22.5601C119.343 22.5601 118.25 22.8535 117.21 23.4401C116.196 24.0268 115.37 24.8801 114.73 26.0001C114.116 27.1201 113.81 28.4401 113.81 29.9601C113.81 31.4801 114.116 32.8135 114.73 33.9601C115.37 35.0801 116.196 35.9335 117.21 36.5201C118.25 37.1068 119.343 37.4001 120.49 37.4001C121.663 37.4001 122.756 37.1068 123.77 36.5201C124.81 35.9068 125.636 35.0268 126.25 33.8801C126.89 32.7335 127.21 31.4001 127.21 29.8801ZM134.839 29.8801C134.839 27.6668 135.292 25.7068 136.199 24.0001C137.132 22.2935 138.386 20.9735 139.959 20.0401C141.559 19.0801 143.319 18.6001 145.239 18.6001C146.972 18.6001 148.479 18.9468 149.759 19.6401C151.066 20.3068 152.106 21.1468 152.879 22.1601V18.9601H157.479V41.0001H152.879V37.7201C152.106 38.7601 151.052 39.6268 149.719 40.3201C148.386 41.0135 146.866 41.3601 145.159 41.3601C143.266 41.3601 141.532 40.8801 139.959 39.9201C138.386 38.9335 137.132 37.5735 136.199 35.8401C135.292 34.0801 134.839 32.0935 134.839 29.8801ZM152.879 29.9601C152.879 28.4401 152.559 27.1201 151.919 26.0001C151.306 24.8801 150.492 24.0268 149.479 23.4401C148.466 22.8535 147.372 22.5601 146.199 22.5601C145.026 22.5601 143.932 22.8535 142.919 23.4401C141.906 24.0001 141.079 24.8401 140.439 25.9601C139.826 27.0535 139.519 28.3601 139.519 29.8801C139.519 31.4001 139.826 32.7335 140.439 33.8801C141.079 35.0268 141.906 35.9068 142.919 36.5201C143.959 37.1068 145.052 37.4001 146.199 37.4001C147.372 37.4001 148.466 37.1068 149.479 36.5201C150.492 35.9335 151.306 35.0801 151.919 33.9601C152.559 32.8135 152.879 31.4801 152.879 29.9601ZM183.309 18.9601L169.789 51.3601H165.069L169.549 40.6401L160.869 18.9601H165.949L172.149 35.7601L178.589 18.9601H183.309ZM213.43 18.6001C215.163 18.6001 216.71 18.9601 218.07 19.6801C219.456 20.4001 220.536 21.4668 221.31 22.8801C222.11 24.2935 222.51 26.0001 222.51 28.0001V41.0001H217.99V28.6801C217.99 26.7068 217.496 25.2001 216.51 24.1601C215.523 23.0935 214.176 22.5601 212.47 22.5601C210.763 22.5601 209.403 23.0935 208.39 24.1601C207.403 25.2001 206.91 26.7068 206.91 28.6801V41.0001H202.39V28.6801C202.39 26.7068 201.896 25.2001 200.91 24.1601C199.923 23.0935 198.576 22.5601 196.87 22.5601C195.163 22.5601 193.803 23.0935 192.79 24.1601C191.803 25.2001 191.31 26.7068 191.31 28.6801V41.0001H186.75V18.9601H191.31V21.4801C192.056 20.5735 193.003 19.8668 194.15 19.3601C195.296 18.8535 196.523 18.6001 197.83 18.6001C199.59 18.6001 201.163 18.9735 202.55 19.7201C203.936 20.4668 205.003 21.5468 205.75 22.9601C206.416 21.6268 207.456 20.5735 208.87 19.8001C210.283 19.0001 211.803 18.6001 213.43 18.6001ZM248.512 29.4401C248.512 30.2668 248.459 31.0135 248.352 31.6801H231.512C231.646 33.4401 232.299 34.8535 233.472 35.9201C234.646 36.9868 236.086 37.5201 237.792 37.5201C240.246 37.5201 241.979 36.4935 242.992 34.4401H247.912C247.246 36.4668 246.032 38.1335 244.272 39.4401C242.539 40.7201 240.379 41.3601 237.792 41.3601C235.686 41.3601 233.792 40.8935 232.112 39.9601C230.459 39.0001 229.152 37.6668 228.192 35.9601C227.259 34.2268 226.792 32.2268 226.792 29.9601C226.792 27.6935 227.246 25.7068 228.152 24.0001C229.086 22.2668 230.379 20.9335 232.032 20.0001C233.712 19.0668 235.632 18.6001 237.792 18.6001C239.872 18.6001 241.726 19.0535 243.352 19.9601C244.979 20.8668 246.246 22.1468 247.152 23.8001C248.059 25.4268 248.512 27.3068 248.512 29.4401ZM243.752 28.0001C243.726 26.3201 243.126 24.9735 241.952 23.9601C240.779 22.9468 239.326 22.4401 237.592 22.4401C236.019 22.4401 234.672 22.9468 233.552 23.9601C232.432 24.9468 231.766 26.2935 231.552 28.0001H243.752ZM264.12 18.6001C265.853 18.6001 267.4 18.9601 268.76 19.6801C270.146 20.4001 271.226 21.4668 272 22.8801C272.773 24.2935 273.16 26.0001 273.16 28.0001V41.0001H268.64V28.6801C268.64 26.7068 268.146 25.2001 267.16 24.1601C266.173 23.0935 264.826 22.5601 263.12 22.5601C261.413 22.5601 260.053 23.0935 259.04 24.1601C258.053 25.2001 257.56 26.7068 257.56 28.6801V41.0001H253V18.9601H257.56V21.4801C258.306 20.5735 259.253 19.8668 260.4 19.3601C261.573 18.8535 262.813 18.6001 264.12 18.6001ZM284.296 22.6801V34.8801C284.296 35.7068 284.483 36.3068 284.856 36.6801C285.256 37.0268 285.923 37.2001 286.856 37.2001H289.656V41.0001H286.056C284.003 41.0001 282.43 40.5201 281.336 39.5601C280.243 38.6001 279.696 37.0401 279.696 34.8801V22.6801H277.096V18.9601H279.696V13.4801H284.296V18.9601H289.656V22.6801H284.296Z" fill="#1E293B"/>
<defs>
<linearGradient id="paint0_linear_347_8" x1="4.48467" y1="43.1683" x2="38.3796" y2="57.3318" gradientUnits="userSpaceOnUse">
<stop stop-color="#A5B4FC" stop-opacity="0.01"/>
<stop offset="1" stop-color="#A5B4FC"/>
</linearGradient>
</defs>
</svg>
