<svg width="182" height="38" viewBox="0 0 182 38" fill="none" xmlns="http://www.w3.org/2000/svg">
<rect y="15.262" width="27.3479" height="26.175" rx="13.0875" transform="rotate(-33.9223 0 15.262)" fill="#4A88EB"/>
<mask id="mask0_347_7" style="mask-type:luminance" maskUnits="userSpaceOnUse" x="5" y="5" width="28" height="27">
<rect y="15.262" width="27.3479" height="26.175" rx="13.0875" transform="rotate(-33.9223 0 15.262)" fill="white"/>
</mask>
<g mask="url(#mask0_347_7)">
<path fill-rule="evenodd" clip-rule="evenodd" d="M12.2792 1.62241L18.5373 43.2856L33.9001 40.7846L48.1907 14.6145L12.2792 1.62241Z" fill="#3A6CBD"/>
<path fill-rule="evenodd" clip-rule="evenodd" d="M-1.19495 10.6842L5.06322 52.3474L20.4259 49.8464L34.7166 23.6763L-1.19495 10.6842Z" fill="url(#paint0_linear_347_7)"/>
<path d="M25.267 7.20542L11.9704 10.9993C10.3247 11.4689 8.86483 12.3805 7.91191 13.5336C6.95898 14.6867 6.59108 15.9868 6.88912 17.148C7.18717 18.3091 8.12676 19.2362 9.50119 19.7252C10.8756 20.2142 12.5723 20.2252 14.218 19.7556L23.0824 17.2263C24.7281 16.7568 26.4248 16.7677 27.7992 17.2567C29.1736 17.7458 30.1132 18.6728 30.4113 19.834C30.7093 20.9951 30.3414 22.2953 29.3885 23.4484C28.4356 24.6015 26.9757 25.513 25.33 25.9826L17.7952 28.1325L10.0425 30.1945" stroke="#9DBFF4" stroke-width="5" stroke-linecap="round" stroke-linejoin="round"/>
</g>
<path d="M14.5198 5.55298L21.5485 32.7699" stroke="#3F7DE0" stroke-width="5" stroke-linecap="round" stroke-linejoin="round"/>
<path d="M47.296 30.168C46.176 30.168 45.168 29.976 44.272 29.592C43.376 29.192 42.672 28.632 42.16 27.912C41.648 27.192 41.392 26.352 41.392 25.392H44.32C44.384 26.112 44.664 26.704 45.16 27.168C45.672 27.632 46.384 27.864 47.296 27.864C48.24 27.864 48.976 27.64 49.504 27.192C50.032 26.728 50.296 26.136 50.296 25.416C50.296 24.856 50.128 24.4 49.792 24.048C49.472 23.696 49.064 23.424 48.568 23.232C48.088 23.04 47.416 22.832 46.552 22.608C45.464 22.32 44.576 22.032 43.888 21.744C43.216 21.44 42.64 20.976 42.16 20.352C41.68 19.728 41.44 18.896 41.44 17.856C41.44 16.896 41.68 16.056 42.16 15.336C42.64 14.616 43.312 14.064 44.176 13.68C45.04 13.296 46.04 13.104 47.176 13.104C48.792 13.104 50.112 13.512 51.136 14.328C52.176 15.128 52.752 16.232 52.864 17.64H49.84C49.792 17.032 49.504 16.512 48.976 16.08C48.448 15.648 47.752 15.432 46.888 15.432C46.104 15.432 45.464 15.632 44.968 16.032C44.472 16.432 44.224 17.008 44.224 17.76C44.224 18.272 44.376 18.696 44.68 19.032C45 19.352 45.4 19.608 45.88 19.8C46.36 19.992 47.016 20.2 47.848 20.424C48.952 20.728 49.848 21.032 50.536 21.336C51.24 21.64 51.832 22.112 52.312 22.752C52.808 23.376 53.056 24.216 53.056 25.272C53.056 26.12 52.824 26.92 52.36 27.672C51.912 28.424 51.248 29.032 50.368 29.496C49.504 29.944 48.48 30.168 47.296 30.168ZM59.0204 18.72C59.4844 18.112 60.1164 17.6 60.9164 17.184C61.7164 16.768 62.6204 16.56 63.6284 16.56C64.7804 16.56 65.8284 16.848 66.7724 17.424C67.7324 17.984 68.4844 18.776 69.0284 19.8C69.5724 20.824 69.8444 22 69.8444 23.328C69.8444 24.656 69.5724 25.848 69.0284 26.904C68.4844 27.944 67.7324 28.76 66.7724 29.352C65.8284 29.928 64.7804 30.216 63.6284 30.216C62.6204 30.216 61.7244 30.016 60.9404 29.616C60.1564 29.2 59.5164 28.688 59.0204 28.08V36.288H56.2844V16.776H59.0204V18.72ZM67.0604 23.328C67.0604 22.416 66.8684 21.632 66.4844 20.976C66.1164 20.304 65.6204 19.8 64.9964 19.464C64.3884 19.112 63.7324 18.936 63.0284 18.936C62.3404 18.936 61.6844 19.112 61.0604 19.464C60.4524 19.816 59.9564 20.328 59.5724 21C59.2044 21.672 59.0204 22.464 59.0204 23.376C59.0204 24.288 59.2044 25.088 59.5724 25.776C59.9564 26.448 60.4524 26.96 61.0604 27.312C61.6844 27.664 62.3404 27.84 63.0284 27.84C63.7324 27.84 64.3884 27.664 64.9964 27.312C65.6204 26.944 66.1164 26.416 66.4844 25.728C66.8684 25.04 67.0604 24.24 67.0604 23.328ZM75.286 18.72C75.75 18.112 76.382 17.6 77.182 17.184C77.982 16.768 78.886 16.56 79.894 16.56C81.046 16.56 82.094 16.848 83.038 17.424C83.998 17.984 84.75 18.776 85.294 19.8C85.838 20.824 86.11 22 86.11 23.328C86.11 24.656 85.838 25.848 85.294 26.904C84.75 27.944 83.998 28.76 83.038 29.352C82.094 29.928 81.046 30.216 79.894 30.216C78.886 30.216 77.99 30.016 77.206 29.616C76.422 29.2 75.782 28.688 75.286 28.08V36.288H72.55V16.776H75.286V18.72ZM83.326 23.328C83.326 22.416 83.134 21.632 82.75 20.976C82.382 20.304 81.886 19.8 81.262 19.464C80.654 19.112 79.998 18.936 79.294 18.936C78.606 18.936 77.95 19.112 77.326 19.464C76.718 19.816 76.222 20.328 75.838 21C75.47 21.672 75.286 22.464 75.286 23.376C75.286 24.288 75.47 25.088 75.838 25.776C76.222 26.448 76.718 26.96 77.326 27.312C77.95 27.664 78.606 27.84 79.294 27.84C79.998 27.84 80.654 27.664 81.262 27.312C81.886 26.944 82.382 26.416 82.75 25.728C83.134 25.04 83.326 24.24 83.326 23.328ZM87.9036 23.328C87.9036 22 88.1756 20.824 88.7196 19.8C89.2796 18.776 90.0316 17.984 90.9756 17.424C91.9356 16.848 92.9916 16.56 94.1436 16.56C95.1836 16.56 96.0876 16.768 96.8556 17.184C97.6396 17.584 98.2636 18.088 98.7276 18.696V16.776H101.488V30H98.7276V28.032C98.2636 28.656 97.6316 29.176 96.8316 29.592C96.0316 30.008 95.1196 30.216 94.0956 30.216C92.9596 30.216 91.9196 29.928 90.9756 29.352C90.0316 28.76 89.2796 27.944 88.7196 26.904C88.1756 25.848 87.9036 24.656 87.9036 23.328ZM98.7276 23.376C98.7276 22.464 98.5356 21.672 98.1516 21C97.7836 20.328 97.2956 19.816 96.6876 19.464C96.0796 19.112 95.4236 18.936 94.7196 18.936C94.0156 18.936 93.3596 19.112 92.7516 19.464C92.1436 19.8 91.6476 20.304 91.2636 20.976C90.8956 21.632 90.7116 22.416 90.7116 23.328C90.7116 24.24 90.8956 25.04 91.2636 25.728C91.6476 26.416 92.1436 26.944 92.7516 27.312C93.3756 27.664 94.0316 27.84 94.7196 27.84C95.4236 27.84 96.0796 27.664 96.6876 27.312C97.2956 26.96 97.7836 26.448 98.1516 25.776C98.5356 25.088 98.7276 24.288 98.7276 23.376ZM116.985 16.776L108.873 36.216H106.041L108.729 29.784L103.521 16.776H106.569L110.289 26.856L114.153 16.776H116.985ZM135.058 16.56C136.098 16.56 137.026 16.776 137.842 17.208C138.674 17.64 139.322 18.28 139.786 19.128C140.266 19.976 140.506 21 140.506 22.2V30H137.794V22.608C137.794 21.424 137.498 20.52 136.906 19.896C136.314 19.256 135.506 18.936 134.482 18.936C133.458 18.936 132.642 19.256 132.034 19.896C131.442 20.52 131.146 21.424 131.146 22.608V30H128.434V22.608C128.434 21.424 128.138 20.52 127.546 19.896C126.954 19.256 126.146 18.936 125.122 18.936C124.098 18.936 123.282 19.256 122.674 19.896C122.082 20.52 121.786 21.424 121.786 22.608V30H119.05V16.776H121.786V18.288C122.234 17.744 122.802 17.32 123.49 17.016C124.178 16.712 124.914 16.56 125.698 16.56C126.754 16.56 127.698 16.784 128.53 17.232C129.362 17.68 130.002 18.328 130.45 19.176C130.85 18.376 131.474 17.744 132.322 17.28C133.17 16.8 134.082 16.56 135.058 16.56ZM156.108 23.064C156.108 23.56 156.076 24.008 156.012 24.408H145.908C145.988 25.464 146.38 26.312 147.084 26.952C147.788 27.592 148.652 27.912 149.676 27.912C151.148 27.912 152.188 27.296 152.796 26.064H155.747C155.348 27.28 154.62 28.28 153.564 29.064C152.524 29.832 151.228 30.216 149.676 30.216C148.412 30.216 147.276 29.936 146.268 29.376C145.276 28.8 144.492 28 143.916 26.976C143.356 25.936 143.076 24.736 143.076 23.376C143.076 22.016 143.348 20.824 143.892 19.8C144.452 18.76 145.228 17.96 146.22 17.4C147.228 16.84 148.38 16.56 149.676 16.56C150.924 16.56 152.036 16.832 153.012 17.376C153.988 17.92 154.748 18.688 155.292 19.68C155.836 20.656 156.108 21.784 156.108 23.064ZM153.252 22.2C153.236 21.192 152.876 20.384 152.172 19.776C151.468 19.168 150.596 18.864 149.556 18.864C148.612 18.864 147.804 19.168 147.132 19.776C146.46 20.368 146.06 21.176 145.932 22.2H153.252ZM165.472 16.56C166.512 16.56 167.44 16.776 168.256 17.208C169.088 17.64 169.736 18.28 170.2 19.128C170.664 19.976 170.896 21 170.896 22.2V30H168.184V22.608C168.184 21.424 167.888 20.52 167.296 19.896C166.704 19.256 165.896 18.936 164.872 18.936C163.848 18.936 163.032 19.256 162.424 19.896C161.832 20.52 161.536 21.424 161.536 22.608V30H158.8V16.776H161.536V18.288C161.984 17.744 162.552 17.32 163.24 17.016C163.944 16.712 164.688 16.56 165.472 16.56ZM177.578 19.008V26.328C177.578 26.824 177.69 27.184 177.914 27.408C178.154 27.616 178.554 27.72 179.114 27.72H180.794V30H178.634C177.402 30 176.458 29.712 175.802 29.136C175.146 28.56 174.818 27.624 174.818 26.328V19.008H173.258V16.776H174.818V13.488H177.578V16.776H180.794V19.008H177.578Z" fill="#E2E8F0"/>
<defs>
<linearGradient id="paint0_linear_347_7" x1="2.62362" y1="29.7106" x2="26.1464" y2="39.3334" gradientUnits="userSpaceOnUse">
<stop stop-color="#A5B4FC" stop-opacity="0.01"/>
<stop offset="1" stop-color="#A5B4FC"/>
</linearGradient>
</defs>
</svg>
